<?xml version="1.0" encoding="utf-8"?>
<svg viewBox="0 0 500 500" xmlns="http://www.w3.org/2000/svg">
  <path d="M 298.93 59.31 L 356.234 165.52 L 241.626 165.52 L 298.93 59.31 Z" style="fill: rgb(66, 133, 244);" transform="matrix(0, 1, -1, 0, 411.345013, -186.515003)"/>
  <path d="M 358.118 165.863 L 240.612 165.863 L 299.365 56.967 Z M 243.509 164.046 L 355.221 164.046 L 299.365 60.522 Z" style="fill: rgba(0, 0, 0, 0.59);" transform="matrix(0, 1, -1, 0, 410.78001, -187.950001)"/>
  <path d="M 192.72 58.453 L 250.025 164.662 L 135.415 164.662 L 192.72 58.453 Z" style="stroke: rgb(0, 0, 0); fill: rgb(219, 68, 55);" transform="matrix(0, -1, 1, 0, 81.162495, 304.277493)"/>
  <path d="M 191.63 115.895 L 248.936 222.106 L 134.326 222.106 L 191.63 115.895 Z" style="stroke: rgb(0, 0, 0); fill: rgb(244, 180, 0);" transform="matrix(0, 1, -1, 0, 360.631504, -22.630505)"/>
  <path d="M 192.217 172.353 L 249.521 278.563 L 134.912 278.563 L 192.217 172.353 Z" style="stroke: rgb(0, 0, 0); fill: rgb(15, 157, 88);" transform="matrix(0, -1, 1, 0, -33.241493, 417.674492)"/>
  <path d="M 298.93 172.068 L 356.234 278.278 L 241.626 278.278 L 298.93 172.068 Z" style="stroke: rgb(0, 0, 0); fill: rgb(15, 157, 88);" transform="matrix(0, 1, -1, 0, 524.103012, -73.757004)"/>
  <path d="M 299.04 229.086 L 356.346 335.296 L 241.736 335.296 L 299.04 229.086 Z" style="stroke: rgb(0, 0, 0); fill: rgb(244, 180, 0);" transform="matrix(0, -1, 1, 0, 16.850006, 581.231995)"/>
  <path d="M 299.472 286.473 L 356.777 392.683 L 242.169 392.683 L 299.472 286.473 Z" style="stroke: rgb(0, 0, 0); fill: rgb(219, 68, 55);" transform="matrix(0, 1, -1, 0, 639.05101, 40.104996)"/>
  <path d="M 193.048 286.568 L 250.352 392.778 L 135.743 392.778 L 193.048 286.568 Z" style="stroke: rgb(0, 0, 0); fill: rgb(66, 133, 244);" transform="matrix(0, -1, 1, 0, -146.625504, 532.720505)"/>
</svg>